<?xml version="1.0" standalone="no"?>
<!DOCTYPE svg PUBLIC "-//W3C//DTD SVG 20010904//EN"
 "http://www.w3.org/TR/2001/REC-SVG-20010904/DTD/svg10.dtd">
<svg version="1.0" xmlns="http://www.w3.org/2000/svg"
 width="200.000000pt" height="200.000000pt" viewBox="0 0 200.000000 200.000000"
 preserveAspectRatio="xMidYMid meet">

<g transform="translate(0.000000,200.000000) scale(0.100000,-0.100000)"
fill="#000000" stroke="none">
<path d="M860 1554 c-30 -8 -88 -33 -128 -54 -60 -33 -84 -40 -128 -40 l-54 0
0 -56 c0 -35 -6 -67 -17 -85 l-17 -29 -129 0 -129 0 -34 -34 -34 -34 0 -226
c0 -247 5 -271 55 -294 16 -7 76 -12 155 -12 150 0 150 0 150 -94 l0 -56 54 0
c44 0 68 -7 128 -39 96 -52 171 -71 285 -71 107 0 209 28 292 79 41 25 62 31
106 31 l55 0 0 58 c1 88 7 92 144 92 129 0 164 10 184 55 8 18 12 98 12 251
l0 226 -34 34 -34 34 -115 0 -116 0 -20 29 c-15 21 -21 45 -21 85 l0 56 -55 0
c-44 0 -65 6 -106 31 -85 53 -185 79 -297 78 -53 0 -122 -7 -152 -15z m197
-169 c24 -6 25 -7 8 -25 -10 -11 -15 -28 -12 -40 6 -22 -3 -26 -21 -8 -9 9
-18 9 -38 -1 -25 -11 -26 -10 -21 11 4 13 0 29 -10 40 -14 16 -13 18 10 23 14
4 28 16 32 28 l6 22 11 -22 c6 -12 22 -24 35 -28z m-162 -65 c8 0 15 -4 15
-10 0 -5 -4 -10 -10 -10 -5 0 -10 -8 -10 -18 0 -14 -8 -19 -30 -19 -21 0 -29
4 -26 13 3 8 1 16 -4 19 -15 9 -12 25 4 25 8 0 17 8 21 18 6 16 7 16 16 0 6
-10 17 -18 24 -18z m274 0 c13 0 15 -17 1 -25 -5 -3 -7 -11 -4 -19 3 -9 -5
-13 -26 -13 -22 0 -30 5 -30 19 0 10 -4 18 -10 18 -5 0 -10 5 -10 10 0 6 7 10
15 10 9 0 18 7 22 16 6 16 7 16 18 0 7 -9 17 -16 24 -16z m-722 -216 c8 -10
11 -29 8 -41 -3 -12 -1 -25 5 -28 5 -3 10 -23 10 -45 0 -46 -8 -50 -96 -50
l-64 0 0 88 c0 49 3 92 8 96 4 4 31 6 61 4 38 -4 58 -11 68 -24z m188 -4 c0
-22 -5 -26 -40 -31 -38 -5 -38 -5 -10 -10 22 -3 31 -10 33 -26 3 -20 -1 -23
-27 -23 -17 0 -31 -4 -31 -10 0 -5 18 -10 40 -10 36 0 40 -2 40 -25 0 -24 -2
-25 -70 -25 l-70 0 0 88 c0 49 3 92 7 96 4 4 34 6 68 4 57 -3 60 -4 60 -28z
m160 0 c0 -21 -6 -26 -40 -31 -30 -5 -33 -7 -12 -8 55 -2 87 -69 51 -105 -10
-11 -34 -16 -75 -16 -56 0 -59 1 -59 25 0 23 4 25 43 26 38 0 40 1 17 11 -52
21 -55 25 -55 64 0 46 28 66 90 62 35 -3 40 -6 40 -28z m173 -2 c3 -23 -1 -28
-17 -28 -19 0 -21 -6 -21 -66 l0 -65 -32 3 c-33 3 -33 3 -36 66 -3 54 -6 62
-22 62 -14 0 -20 7 -20 23 0 35 8 38 80 35 63 -3 65 -4 68 -30z m175 13 c19
-19 21 -118 3 -146 -16 -24 -22 -26 -84 -23 l-67 3 -3 78 c-5 102 3 111 81
104 33 -3 64 -10 70 -16z m175 10 c27 -17 9 -46 -33 -52 -30 -5 -33 -7 -12 -8
22 -1 27 -6 27 -26 0 -20 -5 -25 -25 -25 -40 0 -29 -18 13 -22 29 -2 37 -7 37
-23 0 -18 -8 -20 -67 -23 l-68 -3 0 89 c0 49 3 92 7 95 9 10 106 8 121 -2z
m149 1 c19 -12 43 -90 43 -138 0 -42 -1 -44 -30 -44 -23 0 -30 4 -30 20 0 13
-7 20 -20 20 -13 0 -20 -7 -20 -20 0 -16 -7 -20 -30 -20 -29 0 -30 1 -30 49 0
27 9 70 20 95 17 41 23 46 52 46 18 0 38 -4 45 -8z m131 -64 c2 -52 6 -68 17
-68 9 0 15 10 15 25 0 21 5 25 30 25 29 0 30 -1 30 -50 l0 -50 -75 0 -75 0 0
88 c0 49 3 92 7 96 4 4 16 6 28 4 17 -3 20 -11 23 -70z"/>
<path d="M372 1068 c6 -18 28 -21 28 -4 0 9 -7 16 -16 16 -9 0 -14 -5 -12 -12z"/>
<path d="M372 998 c6 -17 38 -19 38 -2 0 8 -9 14 -21 14 -11 0 -19 -5 -17 -12z"/>
<path d="M1060 1029 c0 -33 3 -40 18 -37 12 2 18 14 20 41 3 32 0 37 -17 37
-18 0 -21 -6 -21 -41z"/>
<path d="M1416 1054 c-9 -22 -8 -24 9 -24 8 0 15 9 15 20 0 24 -15 27 -24 4z"/>
</g>
</svg>
