<svg width="833" height="647" viewBox="0 0 833 647" fill="none" xmlns="http://www.w3.org/2000/svg">
<g id="ShoppingGirl4 1 1" clip-path="url(#clip0_2_2)">
<g id="Group">
<path id="Vector" d="M811.062 299.822C818.347 299.822 824.253 294.003 824.253 286.824C824.253 279.646 818.347 273.826 811.062 273.826C803.776 273.826 797.87 279.646 797.87 286.824C797.87 294.003 803.776 299.822 811.062 299.822Z" fill="#F2F2F2"/>
<path id="Vector_2" d="M200.662 303.023C199.588 303.765 198.362 304.266 197.07 304.49C195.779 304.715 194.453 304.658 193.186 304.323C191.919 303.988 190.742 303.383 189.738 302.551C188.734 301.719 187.927 300.681 187.374 299.509L155.651 302.673L163.333 288.208L192.28 287.42C194.34 286.636 196.621 286.624 198.69 287.385C200.758 288.147 202.472 289.63 203.505 291.553C204.538 293.476 204.819 295.706 204.295 297.82C203.771 299.934 202.479 301.785 200.662 303.023Z" fill="#FFB6B6"/>
<path id="Vector_3" d="M109.124 317.26L39.2234 288.718C33.6852 286.45 29.2863 282.11 26.9919 276.65C24.6976 271.19 24.6951 265.056 26.985 259.594C28.2563 256.571 30.1873 253.862 32.6409 251.657C35.0945 249.453 38.0106 247.807 41.182 246.838C44.3535 245.869 47.7027 245.599 50.9917 246.049C54.2807 246.499 57.429 247.656 60.213 249.439L116.534 285.519L175.147 282.594L179.535 300.579L109.124 317.26Z" fill="#6C63FF"/>
<path id="Vector_4" d="M96.247 624.085H107.438L112.763 581.549L96.245 581.55L96.247 624.085Z" fill="#FFB6B6"/>
<path id="Vector_5" d="M92.4566 618.645L110.148 617.604V625.073L126.968 636.519C127.799 637.085 128.425 637.897 128.754 638.837C129.083 639.778 129.099 640.797 128.798 641.747C128.498 642.697 127.897 643.527 127.084 644.116C126.271 644.706 125.287 645.024 124.278 645.024H103.215L99.5848 637.636L98.1673 645.024H90.2258L92.4566 618.645Z" fill="#2F2E41"/>
<path id="Vector_6" d="M24.2416 624.085H35.4329L40.7572 581.549L24.2396 581.55L24.2416 624.085Z" fill="#FFB6B6"/>
<path id="Vector_7" d="M20.4514 618.645L38.1431 617.604V625.073L54.9631 636.519C55.794 637.085 56.4197 637.897 56.7489 638.837C57.0782 639.778 57.0937 640.797 56.7932 641.747C56.4928 642.697 55.8921 643.527 55.0788 644.116C54.2656 644.706 53.2824 645.024 52.2727 645.024H31.2101L27.5796 637.636L26.162 645.024H18.2206L20.4514 618.645Z" fill="#2F2E41"/>
<path id="Vector_8" d="M80.8177 388.853L124.451 474.15C126.842 478.81 127.581 484.125 126.551 489.248C125.664 493.624 124.304 497.895 122.492 501.986L116.637 570.435L111.391 591.905L92.5174 593.491C92.5174 593.491 93.9786 575.494 88.8644 550.258C83.7502 525.022 92.5174 488.268 92.5174 488.268C92.5174 488.268 76.4341 462.332 58.1489 449.354C39.8637 436.376 80.8177 388.853 80.8177 388.853Z" fill="#2F2E41"/>
<path id="Vector_9" d="M34.0189 350.299C34.0189 350.299 24.9676 366.107 18.2806 374.616C12.1027 382.321 9.11201 392.043 9.90919 401.831C10.5586 408.83 13.0549 416.379 19.3968 422.358C19.3968 422.358 23.7804 433.166 21.5886 438.935V490.117C21.5886 490.117 9.85197 550.551 20.0905 568.568L24.511 609.009C24.511 609.009 40.0266 613.299 40.7572 606.101C40.7572 606.101 42.7861 590.282 43.5674 585.232L44.156 533.511C44.2768 526.79 46.3934 520.252 50.2443 514.703C53.2884 510.294 56.3326 503.445 56.7385 493.707L80.8177 388.853L86.1784 352.226L34.0189 350.299Z" fill="#2F2E41"/>
<path id="Vector_10" d="M20.542 293.966L29.9012 340.077L9.39642 387.181L85.9978 358.086L87.0379 355.305L89.572 345.835L86.5695 316.35C87.6241 314.185 102.637 300.518 86.9356 276.489L69.9747 237.263L38.206 236.786L38.074 236.916C30.6043 244.264 25.0946 253.318 22.0358 263.272C18.9769 273.225 18.4637 283.77 20.542 293.966Z" fill="#6C63FF"/>
<path id="Vector_11" d="M67.1284 429.496C66.0819 428.716 65.2215 427.721 64.6079 426.578C63.9942 425.436 63.6422 424.175 63.5767 422.884C63.5112 421.593 63.7337 420.304 64.2285 419.107C64.7234 417.91 65.4786 416.834 66.441 415.956L53.6401 387.181L69.9709 389.941L79.6231 416.843C81.0134 418.534 81.726 420.669 81.6257 422.842C81.5255 425.016 80.6195 427.078 79.0793 428.638C77.5392 430.198 75.4719 431.146 73.2693 431.304C71.0666 431.463 68.8817 430.819 67.1284 429.496Z" fill="#FFB6B6"/>
<path id="Vector_12" d="M25.2606 348.033L31.3551 273.72C31.8446 267.83 34.6854 262.372 39.254 258.543C43.8227 254.715 49.7462 252.828 55.7248 253.298C59.0345 253.561 62.2448 254.54 65.1276 256.163C68.0105 257.787 70.4953 260.016 72.4055 262.692C74.3158 265.368 75.6047 268.426 76.1807 271.648C76.7568 274.871 76.6058 278.178 75.7386 281.337L58.1927 345.231L79.0216 399.295L62.9992 408.934L25.2606 348.033Z" fill="#6C63FF"/>
<path id="Vector_13" d="M1.28729 239.156L78.8312 223.534C80.9666 216.516 85.0572 210.072 73.7636 199.112C72.0138 190.679 67.0112 183.244 59.8092 178.372C52.6073 173.501 43.7679 171.574 35.1524 172.996C17.3536 171.435 7.35455 183.899 7.40618 200.63L1.28729 239.156Z" fill="#2F2E41"/>
<path id="Vector_14" d="M46.5048 228.601C61.0624 228.601 72.8635 216.973 72.8635 202.629C72.8635 188.285 61.0624 176.657 46.5048 176.657C31.9473 176.657 20.1461 188.285 20.1461 202.629C20.1461 216.973 31.9473 228.601 46.5048 228.601Z" fill="#FFB8B8"/>
<path id="Vector_15" d="M26.634 180.901C30.1909 175.653 35.7088 172.003 41.9852 170.746L46.9559 169.745C53.2839 168.47 59.8666 169.724 65.256 173.232C70.6454 176.739 74.4 182.213 75.6938 188.448C72.1223 193.031 50.9457 196.504 38.3225 198.018C41.8576 210.586 55.4476 220.898 53.9774 228.541L4.2698 238.555L3.25351 233.657C-5.46745 212.993 6.69755 191.84 26.634 180.901Z" fill="#2F2E41"/>
<path id="Vector_16" d="M1.0722 240.554L78.6161 224.932C80.7515 217.914 84.842 211.469 73.5485 200.51C71.7987 192.076 66.7961 184.642 59.5941 179.77C52.3921 174.899 43.5528 172.971 34.9373 174.393C17.1384 172.833 7.13946 185.297 7.19109 202.028L1.0722 240.554Z" fill="#2F2E41"/>
<path id="Vector_17" d="M46.2897 229.999C60.8472 229.999 72.6484 218.371 72.6484 204.027C72.6484 189.683 60.8472 178.055 46.2897 178.055C31.7322 178.055 19.931 189.683 19.931 204.027C19.931 218.371 31.7322 229.999 46.2897 229.999Z" fill="#FFB8B8"/>
<path id="Vector_18" d="M26.4189 182.299C29.9758 177.051 35.4937 173.401 41.7701 172.144L46.7408 171.143C53.0688 169.868 59.6515 171.122 65.0409 174.63C70.4303 178.137 74.1849 183.61 75.4786 189.846C71.9071 194.429 50.7306 197.901 38.1074 199.415C41.6425 211.984 55.2325 222.296 53.7623 229.939L4.05467 239.953L3.03835 235.055C-5.6826 214.391 6.48241 193.238 26.4189 182.299Z" fill="#2F2E41"/>
<path id="Vector_19" d="M831.992 36.5467H137.597C137.328 36.5408 137.071 36.4313 136.883 36.2415C136.695 36.0518 136.589 35.797 136.589 35.5315C136.589 35.2661 136.695 35.0113 136.883 34.8215C137.071 34.6318 137.328 34.5222 137.597 34.5164H831.992C832.261 34.5222 832.518 34.6318 832.706 34.8215C832.894 35.0113 833 35.2661 833 35.5315C833 35.797 832.894 36.0518 832.706 36.2415C832.518 36.4313 832.261 36.5408 831.992 36.5467Z" fill="#CACACA"/>
<path id="Vector_20" d="M160.281 22.3341C166.404 22.3341 171.367 17.3344 171.367 11.1671C171.367 4.99966 166.404 0 160.281 0C154.158 0 149.195 4.99966 149.195 11.1671C149.195 17.3344 154.158 22.3341 160.281 22.3341Z" fill="#3F3D56"/>
<path id="Vector_21" d="M198.579 22.3341C204.701 22.3341 209.665 17.3344 209.665 11.1671C209.665 4.99966 204.701 0 198.579 0C192.456 0 187.492 4.99966 187.492 11.1671C187.492 17.3344 192.456 22.3341 198.579 22.3341Z" fill="#3F3D56"/>
<path id="Vector_22" d="M236.876 22.3341C242.999 22.3341 247.962 17.3344 247.962 11.1671C247.962 4.99966 242.999 0 236.876 0C230.753 0 225.79 4.99966 225.79 11.1671C225.79 17.3344 230.753 22.3341 236.876 22.3341Z" fill="#3F3D56"/>
<path id="Vector_23" d="M809.046 6.83053H781.835C781.296 6.81881 780.784 6.59975 780.407 6.22026C780.03 5.84077 779.819 5.33101 779.819 4.80016C779.819 4.2693 780.03 3.75955 780.407 3.38005C780.784 3.00056 781.296 2.78149 781.835 2.76978H809.046C809.585 2.78149 810.097 3.00056 810.474 3.38005C810.851 3.75955 811.062 4.2693 811.062 4.80016C811.062 5.33101 810.851 5.84077 810.474 6.22026C810.097 6.59975 809.585 6.81881 809.046 6.83053Z" fill="#3F3D56"/>
<path id="Vector_24" d="M809.046 14.4444H781.835C781.296 14.4327 780.784 14.2137 780.407 13.8342C780.03 13.4547 779.819 12.9449 779.819 12.4141C779.819 11.8832 780.03 11.3734 780.407 10.994C780.784 10.6145 781.296 10.3954 781.835 10.3837H809.046C809.585 10.3954 810.097 10.6145 810.474 10.994C810.851 11.3734 811.062 11.8832 811.062 12.4141C811.062 12.9449 810.851 13.4547 810.474 13.8342C810.097 14.2137 809.585 14.4327 809.046 14.4444Z" fill="#3F3D56"/>
<path id="Vector_25" d="M809.046 22.0583H781.835C781.296 22.0466 780.784 21.8276 780.407 21.4481C780.03 21.0686 779.819 20.5588 779.819 20.028C779.819 19.4971 780.03 18.9874 780.407 18.6079C780.784 18.2284 781.296 18.0093 781.835 17.9976H809.046C809.585 18.0093 810.097 18.2284 810.474 18.6079C810.851 18.9874 811.062 19.4971 811.062 20.028C811.062 20.5588 810.851 21.0686 810.474 21.4481C810.097 21.8276 809.585 22.0466 809.046 22.0583Z" fill="#3F3D56"/>
<g id="secondSlide">
<path id="Vector_26" d="M729.06 431.82H528.01C522.44 431.814 517.099 429.631 513.16 425.75C509.222 421.868 507.006 416.606 507 411.117V152.57C507.006 147.081 509.222 141.819 513.161 137.938C517.099 134.057 522.44 131.874 528.01 131.867H729.06C734.63 131.874 739.971 134.057 743.909 137.938C747.848 141.819 750.064 147.081 750.07 152.57V411.117C750.064 416.606 747.848 421.868 743.91 425.75C739.971 429.631 734.63 431.814 729.06 431.82Z" fill="#F0F0F0"/>
<path id="Vector_27" d="M740.527 127.165L740.507 127.183C738.562 125.234 735.931 124.096 733.158 124.006C730.386 123.917 727.685 124.881 725.614 126.7C723.544 128.519 722.263 131.053 722.037 133.777C721.81 136.501 722.656 139.207 724.399 141.333L724.379 141.351L738.776 157.262L754.924 143.076C757.066 141.195 758.361 138.553 758.525 135.73C758.689 132.908 757.709 130.137 755.8 128.027C753.891 125.917 751.209 124.641 748.345 124.479C745.481 124.317 742.668 125.283 740.527 127.165Z" fill="#F01111"/>
<path id="Vector_28" d="M675.359 227.592V244.811L673.652 265.847C673.652 265.847 673.113 284.216 672.46 298.705C672.066 307.513 671.623 314.885 671.236 315.837C670.761 317.004 670.874 320.186 671.148 323.526C671.47 327.391 672.001 331.469 672.09 332.834C672.259 335.381 670.89 346.323 670.89 346.323C670.89 346.323 669.36 373.763 667.137 375.953C664.915 378.143 667.137 384.372 667.137 384.372C656.717 391.942 643.558 382.69 643.558 382.69C646.465 378.127 641.85 346.982 641.85 346.982C641.85 346.982 641.174 336.349 639.805 333.493C638.436 330.636 638.09 312.79 638.09 312.79V286.359C638.09 286.359 634.498 280.947 633.991 278.424C633.484 275.9 633.991 266.981 633.991 266.981L630.238 254.523L627.669 264.283C627.669 264.283 621.017 291.556 619.817 294.921C619.165 297.169 619.407 299.578 620.494 301.657C620.494 301.657 622.209 306.847 620.494 309.227C619.428 310.719 618.613 312.369 618.078 314.115C618.078 314.115 617.2 324.05 615.662 327.605C614.124 331.16 612.763 335.54 612.763 335.54C612.763 335.54 613.125 342.253 611.587 343.768C610.049 345.284 609.542 352.862 609.542 352.862C609.542 352.862 609.88 361.44 607.826 364.471C605.773 367.502 605.773 384.673 605.773 384.673C602.212 386.925 598.107 388.205 593.88 388.382C589.652 388.559 585.453 387.627 581.71 385.681C581.71 385.681 583.74 383.808 582.202 375.08C580.664 366.351 583.305 342.586 583.305 342.586C583.305 342.586 582.967 336.555 584.674 333.858C586.381 331.16 583.812 325.946 584.497 323.59C585.181 321.233 587.235 308.434 587.235 308.434C587.235 308.434 586.381 276.956 586.381 275.273C586.179 272.279 585.357 269.357 583.965 266.688C582.427 263.998 583.965 244.47 583.965 244.47C583.965 244.47 587.589 234.376 586.381 232.186C585.173 229.996 587.186 226.124 587.186 226.124C587.186 226.124 585.31 221.577 587.186 220.736C589.063 219.895 589.409 216.531 589.409 216.531L590.714 200.2C590.714 200.2 591.205 192.789 592.767 192.456C594.33 192.123 593.645 189.266 595.183 187.243C595.933 185.875 596.449 184.395 596.713 182.862C596.931 181.926 597.132 180.95 597.301 180.014C597.784 177.475 598.082 175.285 598.082 175.285C608.165 183.537 661.178 177.752 661.234 177.752C664.6 178.474 668.603 189.988 671.494 200.026C674.064 208.995 675.365 218.272 675.359 227.592Z" fill="#3F3D56"/>
</g>
<path id="Vector_29" d="M138.448 647H167.895C168.332 646.22 168.737 645.42 169.113 644.61C172.502 637.461 173.933 629.483 175.303 621.664L177.525 608.966C170.422 614.055 163.322 619.141 156.226 624.224C153.913 625.883 151.548 627.613 149.326 629.483C144.648 633.392 140.609 637.911 139.027 643.65C138.945 643.97 138.864 644.29 138.803 644.61C138.635 645.399 138.516 646.197 138.448 647Z" fill="#F0F0F0"/>
<path id="Vector_30" d="M134.318 644.61C134.317 644.661 134.32 644.711 134.328 644.76C134.427 645.524 134.611 646.275 134.876 647H148.098C148.514 646.232 148.867 645.433 149.153 644.61C149.555 643.512 149.844 642.376 150.016 641.221C150.455 637.298 150.222 633.33 149.326 629.483C149.072 628.233 148.798 626.973 148.524 625.733L146.962 618.654L139.138 631.042C136.52 635.192 133.801 639.761 134.318 644.61Z" fill="#F0F0F0"/>
<path id="Vector_31" d="M1.12206e-05 645.8C-0.000673806 645.957 0.0300135 646.113 0.0903257 646.258C0.150638 646.403 0.239405 646.535 0.351531 646.646C0.463656 646.758 0.596952 646.846 0.743816 646.907C0.890681 646.968 1.04823 646.999 1.20747 647H187.205C187.527 647 187.835 646.874 188.062 646.65C188.29 646.426 188.418 646.122 188.418 645.805C188.418 645.488 188.29 645.184 188.062 644.96C187.835 644.736 187.527 644.61 187.205 644.61H1.20747C0.887445 644.611 0.580741 644.737 0.354457 644.96C0.128173 645.183 0.000729481 645.485 1.12206e-05 645.8Z" fill="#CACACA"/>
<g id="FirstSlide">
<path id="Vector_32" d="M431.06 430.933H230.01C224.44 430.927 219.099 428.743 215.16 424.862C211.221 420.981 209.006 415.719 209 410.23V151.682C209.006 146.194 211.222 140.931 215.16 137.05C219.099 133.169 224.44 130.986 230.01 130.98H431.06C436.63 130.986 441.97 133.169 445.909 137.05C449.848 140.931 452.064 146.194 452.07 151.682V410.23C452.064 415.719 449.848 420.981 445.909 424.862C441.971 428.743 436.63 430.927 431.06 430.933Z" fill="#F0F0F0"/>
<path id="Vector_33" d="M432.336 429.952H231.287C225.448 429.945 219.849 427.656 215.72 423.588C211.591 419.519 209.269 414.003 209.262 408.249V149.702C209.269 143.948 211.591 138.432 215.72 134.363C219.849 130.295 225.448 128.006 231.287 128H432.336C438.176 128.006 443.774 130.295 447.903 134.363C452.033 138.432 454.355 143.948 454.362 149.702V408.249C454.355 414.003 452.033 419.519 447.904 423.588C443.774 427.657 438.176 429.945 432.336 429.952ZM231.287 129.999C225.986 130.005 220.903 132.083 217.155 135.777C213.406 139.47 211.297 144.478 211.291 149.702V408.249C211.297 413.473 213.406 418.481 217.154 422.174C220.903 425.868 225.986 427.946 231.287 427.952H432.336C437.638 427.946 442.721 425.868 446.469 422.175C450.218 418.481 452.327 413.473 452.333 408.249V149.702C452.327 144.478 450.218 139.47 446.469 135.776C442.72 132.083 437.638 130.005 432.336 129.999H231.287Z" fill="#6C63FF"/>
<path id="Vector_34" d="M259.777 293.897C259.401 293.103 259.208 292.24 259.213 291.369C259.219 290.497 259.421 289.637 259.807 288.846L273.284 261.242C274.613 256.966 277.668 253.367 281.779 251.234C285.889 249.1 290.719 248.607 295.211 249.861C299.703 251.115 303.489 254.015 305.74 257.925C307.991 261.835 308.524 266.435 307.22 270.718L302.716 300.959C302.587 301.822 302.265 302.648 301.771 303.382C301.277 304.116 300.623 304.739 299.853 305.21C299.083 305.681 298.215 305.989 297.31 306.111C296.404 306.234 295.481 306.17 294.604 305.922L263.772 297.219C262.895 296.972 262.083 296.547 261.394 295.974C260.705 295.4 260.153 294.692 259.777 293.897Z" fill="#3F3D56"/>
<path id="Vector_35" d="M403.439 279.536L370.037 287.934C369.087 288.173 368.087 288.235 367.106 288.116C366.125 287.998 365.185 287.701 364.351 287.247C363.517 286.792 362.808 286.19 362.273 285.483C361.737 284.775 361.388 283.977 361.249 283.144L356.369 253.965C354.957 249.832 355.534 245.393 357.973 241.621C360.411 237.848 364.513 235.05 369.38 233.84C374.246 232.629 379.479 233.106 383.932 235.164C388.384 237.223 391.694 240.695 393.134 244.821L407.734 271.457C408.152 272.22 408.371 273.05 408.377 273.891C408.382 274.732 408.174 275.565 407.767 276.331C407.359 277.098 406.761 277.781 406.014 278.334C405.268 278.887 404.389 279.297 403.439 279.536Z" fill="#3F3D56"/>
<path id="Vector_36" d="M286.673 257.982L308.272 240.875L343.617 230.184L373.072 236.599L374.803 254.322C376.909 275.881 375.995 297.663 372.09 318.922L371.373 335.306L295.509 338.167L287.654 323.199C287.654 323.199 269.982 303.955 283.727 282.572L286.673 257.982Z" fill="#3F3D56"/>
<path id="Vector_37" d="M327.471 458.73C347.54 458.73 363.809 442.7 363.809 422.925C363.809 403.15 347.54 387.12 327.471 387.12C307.402 387.12 291.133 403.15 291.133 422.925C291.133 442.7 307.402 458.73 327.471 458.73Z" fill="#6C63FF"/>
<path id="Vector_38" d="M323.297 443.78C322.67 443.78 322.051 443.636 321.49 443.359C320.928 443.083 320.44 442.681 320.064 442.186L310.15 429.162C309.831 428.744 309.598 428.267 309.466 427.76C309.334 427.253 309.304 426.726 309.379 426.207C309.454 425.689 309.631 425.19 309.902 424.74C310.172 424.289 310.53 423.896 310.956 423.582C311.381 423.267 311.864 423.039 312.379 422.909C312.894 422.78 313.429 422.751 313.955 422.826C314.481 422.9 314.987 423.076 315.444 423.343C315.901 423.61 316.3 423.964 316.618 424.383L323.104 432.903L339.762 408.283C340.055 407.846 340.433 407.47 340.875 407.178C341.316 406.885 341.811 406.681 342.333 406.577C342.854 406.474 343.391 406.473 343.913 406.574C344.435 406.675 344.931 406.877 345.374 407.168C345.817 407.459 346.197 407.832 346.492 408.268C346.788 408.704 346.993 409.193 347.097 409.707C347.2 410.221 347.2 410.75 347.095 411.264C346.991 411.778 346.785 412.266 346.488 412.701L326.661 442.006C326.302 442.536 325.82 442.974 325.254 443.282C324.688 443.591 324.056 443.761 323.41 443.779C323.372 443.779 323.335 443.78 323.297 443.78Z" fill="white"/>
</g>
<g id="tabFirst">
<path id="Vector_39" d="M432.593 532.137C439.878 532.137 445.784 526.318 445.784 519.139C445.784 511.961 439.878 506.141 432.593 506.141C425.307 506.141 419.401 511.961 419.401 519.139C419.401 526.318 425.307 532.137 432.593 532.137Z" fill="#F2F2F2"/>
</g>
<path id="Vector_40" d="M536.996 532.137C544.282 532.137 550.188 526.318 550.188 519.139C550.188 511.961 544.282 506.141 536.996 506.141C529.711 506.141 523.805 511.961 523.805 519.139C523.805 526.318 529.711 532.137 536.996 532.137Z" fill="#F2F2F2"/>
<g id="tabSecond">
<path id="Vector_41" d="M481.297 532.137C488.582 532.137 494.488 526.318 494.488 519.139C494.488 511.961 488.582 506.141 481.297 506.141C474.011 506.141 468.105 511.961 468.105 519.139C468.105 526.318 474.011 532.137 481.297 532.137Z" fill="#F2F2F2"/>
</g>
</g>
</g>
<defs>
<clipPath id="clip0_2_2">
<rect width="833" height="647" fill="white"/>
</clipPath>
</defs>
</svg>
