<svg width="1473" height="753" viewBox="0 0 1473 753" fill="none" xmlns="http://www.w3.org/2000/svg">
<path d="M490 35H486V53H490V35Z" fill="#F2F2F2"/>
<path d="M401 128H396V145H401V128Z" fill="#F2F2F2"/>
<path d="M573 172H572V189H573V172Z" fill="#F2F2F2"/>
<path d="M554 616H552V634H554V616Z" fill="#F2F2F2"/>
<path d="M406 302H403V321H406V302Z" fill="#F2F2F2"/>
<path d="M499 302H497V321H499V302Z" fill="#F2F2F2"/>
<path d="M594 470H592V487H594V470Z" fill="#F2F2F2"/>
<path d="M212 694H44V692.278H210.791V608.759H58.1233L50.7069 586.745L51.7967 586L58.8839 607.037H212V694Z" fill="#2F2E41"/>
<path d="M65.5 736C71.8513 736 77 727.941 77 718C77 708.059 71.8513 700 65.5 700C59.1487 700 54 708.059 54 718C54 727.941 59.1487 736 65.5 736Z" fill="#3F3D56"/>
<path d="M191.5 736C198.956 736 205 727.941 205 718C205 708.059 198.956 700 191.5 700C184.044 700 178 708.059 178 718C178 727.941 184.044 736 191.5 736Z" fill="#3F3D56"/>
<path d="M342 356C351.389 356 359 350.851 359 344.5C359 338.149 351.389 333 342 333C332.611 333 325 338.149 325 344.5C325 350.851 332.611 356 342 356Z" fill="#3F3D56"/>
<path d="M229.041 581H40.7432L0 391H271L270.753 392.118L229.041 581ZM41.6347 579.281H228.157L269.357 392.719H1.62891L41.6347 579.281Z" fill="#2F2E41"/>
<path d="M214.996 571H48.9323L13 403H252L251.783 403.989L214.996 571Z" fill="#9FA4C4"/>
<path d="M276.161 387L275 386.561L282.921 344H329V345.712H283.845L276.161 387Z" fill="#2F2E41"/>
<path d="M258 449H13V450H258V449Z" fill="#2F2E41"/>
<path d="M245 512H26V514H245V512Z" fill="#2F2E41"/>
<path d="M190.564 391.961L181.866 579.744L183.075 579.856L191.773 392.073L190.564 391.961Z" fill="#2F2E41"/>
<path d="M80.875 391.959L79.6656 392.071L88.3133 579.858L89.5227 579.746L80.875 391.959Z" fill="#2F2E41"/>
<path d="M1473 738H0V743H1473V738Z" fill="#2F2E41"/>
<path d="M415 77.7533C415 77.7533 435.027 118.02 422.703 124.214C410.378 130.409 464.297 181 464.297 181L529 168.61L493.568 126.279C493.568 126.279 488.946 83.9481 488.946 77.7532C488.946 71.5584 415 77.7533 415 77.7533Z" fill="#A0616A"/>
<path opacity="0.1" d="M415 77.7533C415 77.7533 435.027 118.02 422.703 124.214C410.378 130.409 464.297 181 464.297 181L529 168.61L493.568 126.279C493.568 126.279 488.946 83.9481 488.946 77.7532C488.946 71.5584 415 77.7533 415 77.7533Z" fill="black"/>
<path d="M379.636 362.208C379.636 362.208 373.705 413.412 379.636 440.038C385.568 466.665 394.466 540.399 394.466 540.399C394.466 540.399 394.466 679.675 427.091 681.723C459.716 683.772 483.443 685.82 486.409 677.627C489.375 669.434 471.579 665.338 480.477 661.242C489.375 657.145 492.341 642.808 480.477 626.423C468.613 610.037 480.477 444.135 480.477 444.135L536.829 548.592C536.829 548.592 542.761 634.615 548.693 646.904C554.625 659.193 542.761 681.723 563.522 683.772C584.284 685.82 608.011 673.531 619.874 669.434C631.738 665.338 602.079 665.338 608.011 663.29C613.943 661.242 631.738 655.097 625.806 653.049C619.874 651.001 613.943 552.688 613.943 552.688C613.943 552.688 597.63 342.75 576.869 334.557C556.107 326.365 542.761 340.476 542.761 340.476L379.636 362.208Z" fill="#2F2E41"/>
<path d="M433.2 674V690.231C433.2 690.231 405.75 734.352 433.2 734.352C460.65 734.352 482 738.924 482 732.837V678.058L433.2 674Z" fill="#2F2E41"/>
<path d="M608.6 674V690.231C608.6 690.231 636.5 734.352 608.6 734.352C580.7 734.352 559 738.924 559 732.837V678.058L608.6 674Z" fill="#2F2E41"/>
<path d="M456 108C485.271 108 509 91.4345 509 71C509 50.5655 485.271 34 456 34C426.729 34 403 50.5655 403 71C403 91.4345 426.729 108 456 108Z" fill="#8C545C"/>
<path d="M438.892 139C438.892 139 453.622 169.712 477.189 163.57L500.757 157.427L542 353.983C542 353.983 509.595 386.743 462.459 366.268C415.324 345.793 438.892 139 438.892 139Z" fill="#FF6363"/>
<path d="M482 133.37L495.154 114C495.154 114 572.615 139.486 584.308 147.642C596 155.798 596 168.031 596 168.031L575.539 219.004C575.539 219.004 581.385 331.144 581.385 335.222C581.385 339.3 601.846 361.728 587.231 353.572C572.615 345.416 569.692 337.261 558 349.494C546.308 361.728 520 376 520 376L482 133.37Z" fill="#3F3D56"/>
<path d="M582.885 281L573.86 337.927C573.86 337.927 519.712 370.457 531.745 372.49C543.778 374.523 549.794 366.391 549.794 366.391C549.794 366.391 570.852 380.622 582.885 372.49C594.918 364.358 625 287.099 625 287.099L582.885 281Z" fill="#A0616A"/>
<path d="M451.806 19.1234C440.187 18.8342 427.753 18.6912 417.957 23.0494C413.449 25.2367 409.496 27.9304 406.258 31.0205C396.717 39.416 388.473 49.9795 392.017 60.3961L396.133 59.2786C396.133 62.0592 395.245 64.8049 393.533 67.3172C394.113 66.144 396.054 68.0405 395.534 69.2273L391 79.5817C398.454 77.6796 407.726 81.5307 408.861 87C409.379 74.9732 411.172 61.1824 425.188 54.1402C432.257 50.5889 441.202 49.5048 449.809 48.5421C457.75 47.6539 466.074 46.807 473.679 48.6265C481.284 50.4459 487.761 55.8599 486.037 61.3274C489.543 60.4865 493.465 62.1876 495.198 64.4701C496.931 66.7526 497.022 69.4452 497.075 72.0265C500.813 73.8654 505.067 70.214 506.59 67.2096C510.166 60.1573 513.345 52.6502 511.418 45.2928C509.492 37.9353 500.878 30.9041 490.134 30.8792C491.438 29.8821 492.134 28.5711 492.074 27.2233L483.218 26.7025C485.467 26.4809 487.534 25.7222 489.067 24.5562C485.512 27.2794 457.556 19.2664 451.806 19.1234Z" fill="#2F2E41"/>
<path d="M453.384 127.4C453.384 127.4 429.697 111.042 421.173 112.044C412.649 113.046 401.01 127.4 401.01 127.4C401.01 127.4 331.179 143.805 334.088 160.209C336.998 176.613 369.004 256.585 369.004 256.585C369.004 256.585 395.191 352.961 371.914 363.214C348.637 373.466 482.48 400.123 485.39 387.82C488.299 375.517 494.119 252.484 485.39 234.029C476.661 215.574 453.384 127.4 453.384 127.4Z" fill="#3F3D56"/>
<path d="M558 161H594.169C594.169 161 619.427 238.169 622.353 246.292C625.278 254.415 631.128 293 628.203 293C625.278 293 566.775 284.877 566.775 290.969L558 161Z" fill="#3F3D56"/>
<path d="M557 352H414.843C400.971 308.737 399.812 266.937 414.843 227H557C534.059 266.218 532.625 307.732 557 352Z" fill="#F2F2F2"/>
<path d="M359 299.226L401 311.544C401 311.544 482 319.756 482 297.173C482 274.59 401 286.908 401 286.908L373.998 281L359 299.226Z" fill="#A0616A"/>
<path d="M359.361 162L324.083 168.113L297.624 276.1C297.624 276.1 288.804 304.625 303.504 306.662C318.203 308.7 359.361 325 359.361 325C359.361 325 365.241 294.437 377 294.437L347.601 278.137L365.241 206.825L359.361 162Z" fill="#3F3D56"/>
<path d="M445 258H442V277H445V258Z" fill="#F2F2F2"/>
</svg>
